<?xml version="1.0" encoding="utf-8"?>
<!-- Generator: Adobe Illustrator 25.0.0, SVG Export Plug-In . SVG Version: 6.00 Build 0)  -->
<svg version="1.1" id="圖層_1" xmlns="http://www.w3.org/2000/svg" xmlns:xlink="http://www.w3.org/1999/xlink" x="0px" y="0px"
	 viewBox="0 0 16 19" style="enable-background:new 0 0 16 19;" xml:space="preserve">
<style type="text/css">
	.st0{fill:#EB5757;}
</style>
<path class="st0" d="M11,3.7c0,0.1,0.2,0.2,0.3,0.2h2.4c0.4,0,0.8,0.3,0.8,0.7c0,0.3-0.2,0.6-0.6,0.7l-0.4,10.4
	c0,0.8-0.8,1.5-1.7,1.5H4.2c-0.9,0-1.7-0.7-1.7-1.5L2.1,5.4C1.7,5.3,1.5,5,1.5,4.7c0-0.4,0.4-0.7,0.8-0.7h2.4C4.8,3.9,5,3.8,5,3.7
	l0.2-0.6c0.2-0.8,1-1.3,1.9-1.3h1.8c0.9,0,1.7,0.6,1.9,1.3L11,3.7z M7.4,7.2v7c0,0.3,0.3,0.5,0.6,0.5c0.3,0,0.6-0.2,0.6-0.5v-7
	c0-0.3-0.3-0.5-0.6-0.5C7.7,6.7,7.4,6.9,7.4,7.2z M4.8,7.2l0.2,7c0,0.3,0.3,0.5,0.6,0.5c0.3,0,0.6-0.2,0.6-0.5l-0.2-7
	c0-0.3-0.3-0.5-0.6-0.5C5,6.7,4.8,7,4.8,7.2z M10.1,7.2l-0.2,7c0,0.3,0.2,0.5,0.6,0.5c0.3,0,0.6-0.2,0.6-0.5l0.2-7
	c0-0.3-0.2-0.5-0.6-0.5C10.3,6.7,10.1,6.9,10.1,7.2z M6.7,3.9h2.6c0.1,0,0.1,0,0.1-0.1L9.3,3.5c0-0.1-0.2-0.3-0.4-0.3H7.1
	c-0.1,0-0.3,0.1-0.4,0.3L6.7,3.9C6.6,3.9,6.6,3.9,6.7,3.9L6.7,3.9z"/>
</svg>
