<?xml version="1.0" encoding="utf-8"?>
<!-- Generator: Adobe Illustrator 25.0.0, SVG Export Plug-In . SVG Version: 6.00 Build 0)  -->
<svg version="1.1" id="圖層_1" xmlns="http://www.w3.org/2000/svg" xmlns:xlink="http://www.w3.org/1999/xlink" x="0px" y="0px"
	 viewBox="0 0 16 19" style="enable-background:new 0 0 16 19;" xml:space="preserve">
<style type="text/css">
	.st0{fill:none;}
	.st1{fill:#EB5757;}
</style>
<path class="st0" d="M5.6,14.8c0.3,0,0.6-0.2,0.6-0.5L6,7.3C6,7,5.7,6.8,5.4,6.8C5,6.7,4.8,7,4.8,7.2l0.2,7
	C5,14.5,5.3,14.8,5.6,14.8z"/>
<path class="st0" d="M8,14.8c0.3,0,0.6-0.2,0.6-0.5v-7C8.6,7,8.3,6.8,8,6.8S7.4,7,7.4,7.3v7C7.4,14.5,7.7,14.8,8,14.8z"/>
<path class="st0" d="M10.4,14.8c0.3,0,0.6-0.2,0.6-0.5l0.2-7c0-0.3-0.2-0.5-0.6-0.5C10.3,6.8,10,7,10,7.3l-0.2,7
	C9.8,14.5,10.1,14.7,10.4,14.8z"/>
<path class="st1" d="M2.5,15.7c0,0.8,0.8,1.5,1.7,1.5h7.5c0.9,0,1.7-0.7,1.7-1.5l0.4-10.4H2.1L2.5,15.7z M10.1,7.2
	c0-0.3,0.3-0.5,0.6-0.5s0.6,0.2,0.6,0.5l-0.2,7c0,0.3-0.3,0.5-0.6,0.5s-0.6-0.2-0.6-0.5L10.1,7.2z M7.4,7.2c0-0.3,0.3-0.5,0.6-0.5
	c0.3,0,0.6,0.2,0.6,0.5v7c0,0.3-0.3,0.5-0.6,0.5s-0.6-0.2-0.6-0.5V7.2z M5.4,6.7C5.7,6.7,6,6.9,6,7.2l0.2,7c0,0.3-0.2,0.5-0.6,0.5
	c-0.3,0-0.6-0.2-0.6-0.5l-0.2-7C4.8,7,5,6.7,5.4,6.7z"/>
<path class="st0" d="M8.9,3.2H7.1C7,3.2,6.8,3.3,6.7,3.5L6.6,3.8c0,0.1,0,0.1,0.1,0.1h2.6c0.1,0,0.1,0,0.1-0.1L9.3,3.5
	C9.2,3.3,9.1,3.2,8.9,3.2z"/>
<path class="st1" d="M14.4,2.3c-0.1-0.4-0.5-0.7-0.9-0.6L11.1,2c-0.1,0-0.3-0.1-0.3-0.2l-0.3-0.6C10.2,0.5,9.3,0,8.4,0.1L6.7,0.4
	C5.8,0.5,5.1,1.2,4.9,2v0.7c0,0.1-0.1,0.2-0.3,0.2L2.2,3.2C1.8,3.3,1.4,3.6,1.5,4c0,0.4,0.3,0.6,0.7,0.6l0,0L14,3l0,0
	C14.2,2.9,14.4,2.6,14.4,2.3z M9.1,2.3L6.6,2.6c-0.1,0-0.1,0-0.1-0.1l0.1-0.4c0-0.1,0.2-0.3,0.3-0.3l1.8-0.2c0.1,0,0.3,0.1,0.4,0.2
	l0.2,0.4C9.2,2.2,9.2,2.3,9.1,2.3z"/>
</svg>
