<?xml version="1.0" encoding="utf-8"?>
<!-- Generator: Adobe Illustrator 25.0.0, SVG Export Plug-In . SVG Version: 6.00 Build 0)  -->
<svg version="1.1" id="圖層_1" xmlns="http://www.w3.org/2000/svg" xmlns:xlink="http://www.w3.org/1999/xlink" x="0px" y="0px"
	 viewBox="0 0 48 48" style="enable-background:new 0 0 48 48;" xml:space="preserve">
<style type="text/css">
	.st0{fill:none;}
</style>
<path class="st0" d="M0,0h48v48H0V0z"/>
<path d="M41.8,26.3c0.1-0.8,0.2-1.5,0.2-2.3s-0.1-1.6-0.2-2.3l5.1-4c0.5-0.4,0.6-1,0.3-1.5l-4.8-8.3c-0.3-0.5-0.9-0.7-1.5-0.5
	l-6,2.4c-1.2-0.9-2.6-1.8-4.1-2.4L30,1c-0.1-0.6-0.6-1-1.2-1h-9.6c-0.6,0-1.1,0.4-1.2,1l-0.9,6.4c-1.5,0.6-2.8,1.4-4.1,2.4l-6-2.4
	c-0.5-0.2-1.2,0-1.5,0.5l-4.8,8.3c-0.3,0.5-0.2,1.2,0.3,1.5l5.1,4C6.1,22.4,6,23.2,6,24s0.1,1.6,0.2,2.3l-5.1,4
	c-0.5,0.4-0.6,1-0.3,1.5l4.8,8.3c0.3,0.5,0.9,0.7,1.5,0.5l6-2.4c1.2,0.9,2.6,1.8,4.1,2.4L18,47c0.1,0.6,0.6,1,1.2,1h9.6
	c0.6,0,1.1-0.4,1.2-1l0.9-6.4c1.5-0.6,2.8-1.4,4.1-2.4l6,2.4c0.5,0.2,1.2,0,1.5-0.5l4.8-8.3c0.3-0.5,0.2-1.2-0.3-1.5L41.8,26.3z
	 M24,32.4c-4.6,0-8.4-3.8-8.4-8.4s3.8-8.4,8.4-8.4s8.4,3.8,8.4,8.4S28.6,32.4,24,32.4z"/>
</svg>
