<?xml version="1.0" encoding="utf-8"?>
<!-- Generator: Adobe Illustrator 27.7.0, SVG Export Plug-In . SVG Version: 6.00 Build 0)  -->
<svg version="1.1" id="圖層_1" xmlns="http://www.w3.org/2000/svg" xmlns:xlink="http://www.w3.org/1999/xlink" x="0px" y="0px"
	 viewBox="0 0 48 48" style="enable-background:new 0 0 48 48;" xml:space="preserve">
<style type="text/css">
	.st0{fill:none;}
</style>
<path class="st0" d="M0,0h48v48H0V0z"/>
<path d="M33.1,35.9c0.5-0.4,1-0.8,1.5-1.3s0.9-1,1.3-1.5l5.3,0.7c0.5,0.1,0.9-0.2,1.1-0.7l2.1-7.7c0.1-0.5-0.1-1-0.6-1.2L38.9,22
	c-0.2-1.3-0.5-2.6-1-3.8l3.2-4.3c0.3-0.4,0.2-0.9-0.1-1.3L35.3,7C35,6.7,34.4,6.6,34,6.9l-4.3,3.2c-1.2-0.5-2.5-0.8-3.8-1l-2.1-4.9
	c-0.2-0.4-0.7-0.7-1.2-0.6L15,5.7c-0.5,0.1-0.8,0.6-0.7,1.1l0.6,5.3c-0.5,0.4-1,0.8-1.5,1.3s-0.9,1-1.3,1.5l-5.3-0.6
	c-0.5-0.1-0.9,0.2-1.1,0.7l-2.1,7.7c-0.1,0.5,0.1,1,0.6,1.2L9.1,26c0.2,1.3,0.5,2.6,1,3.8L6.9,34C6.6,34.4,6.7,35,7,35.3l5.7,5.7
	c0.4,0.4,0.9,0.4,1.3,0.1l4.3-3.2c1.2,0.5,2.5,0.8,3.8,1l2.1,4.9c0.2,0.4,0.7,0.7,1.2,0.6l7.7-2.1c0.5-0.1,0.8-0.6,0.7-1.1
	L33.1,35.9z M19.1,28.9c-2.7-2.7-2.7-7.2,0-9.9s7.2-2.7,9.9,0s2.7,7.2,0,9.9S21.8,31.7,19.1,28.9z"/>
</svg>
