<?xml version="1.0" encoding="utf-8"?>
<!-- Generator: Adobe Adobe Illustrator 24.2.0, SVG Export Plug-In . SVG Version: 6.00 Build 0)  -->
<svg version="1.1" xmlns="http://www.w3.org/2000/svg" xmlns:xlink="http://www.w3.org/1999/xlink" x="0px" y="0px"
	 viewBox="0 0 512 512" style="enable-background:new 0 0 512 512;" xml:space="preserve">
<style type="text/css">

	.st1{fill:#d4a373;}
	.st2{fill:#d4a373;}
	.st3{fill:#d4a373;}
	.st4{fill:#d4a373;}
</style>

<g class="st0">
	<polygon class="st1" points="257.98,263.39 37.69,186.53 257.93,281.58 426.49,207.73 418.8,206.43 		"/>
	<polygon class="st1" points="451.06,195 454.23,195.57 474.4,186.74 		"/>
	<path class="st2" d="M418.8,206.43l-149.9-25.38c-3.49,2.49-7.93,3.99-12.78,3.99c-11.21,0-20.3-7.99-20.3-17.84
			c0-9.85,9.09-17.84,20.3-17.84c9.7,0,17.79,5.98,19.81,13.97L451.06,195l23.34-8.27l31.6-13.85l-28.89-12.35l-222.21-95
			L34.83,160.43L6,172.86l31.69,13.68l220.29,76.85L418.8,206.43z"/>
	<path class="st3" d="M176.85,373.31c0,0-56.47-4.41-62.26-52.13l-14.85-85.46l-1.04-0.45l0.22,95.57
			c0.02,10.68,3.83,21.17,11.27,28.83c17.6,18.13,49.38,25.91,61.05,28.24c2.62,0.52,5.26,0.81,7.92,0.97
			c66,3.9,74.18,57.57,74.18,57.57l0.08,0C253.24,426.09,245.03,380.7,176.85,373.31z"/>
	<g>
		<path class="st4" d="M258.28,304.4L99.74,235.73l14.85,85.46c5.79,47.72,62.26,52.13,62.26,52.13
				c68.18,7.39,76.39,52.78,76.58,73.15l4.66,0v0l0.33,0h0.04l0,0l4.66,0c0.19-20.37,8.39-65.76,76.58-73.15
				c0,0,56.47-4.41,62.26-52.13l14.85-85.46L258.28,304.4z"/>
	</g>
	<path class="st3" d="M339.7,373.31c0,0,56.47-4.41,62.26-52.13l14.85-85.46l1.04-0.45l-0.22,95.57
			c-0.02,10.68-3.83,21.17-11.27,28.83c-17.6,18.13-49.38,25.91-61.05,28.24c-2.62,0.52-5.26,0.81-7.92,0.97
		 	c-66,3.9-74.18,57.57-74.18,57.57l-0.08,0C263.31,426.09,271.52,380.7,339.7,373.31z"/>
</g>

</svg>
